OpenSim_Sub09_CSStiffKnee_RCS.mot
version=1
nRows=27
nColumns=11
inDegrees=no
endheader
time	Top_Thigh	Med_Thigh	Bot_Thigh	Top_Shank	2nd_Top_Shank	2nd_Bot_Shank	Bot_Shank	BNOx	BNOy	BNOZ
0	2167.47811522	2134.23585262	1858.51476583	1301.61321957	1518.89007847	1298.94171646	1298.97677269	3.56589496	-81.97324554	-153.21838169
0.01000000	2166.09436132	2133.22072159	1858.14767180	1301.43683576	1518.79529013	1299.09270857	1299.10537071	3.56446438	-81.92142410	-153.05098305
0.02000000	2163.72664489	2131.45199868	1857.69488927	1301.25230544	1518.55821747	1299.13816823	1299.14367461	3.56292863	-81.87153120	-152.91169483
0.03000000	2160.26697594	2128.91384987	1857.16969421	1301.05948450	1518.15617399	1299.05407916	1299.05612344	3.56081649	-81.82383829	-152.82323201
0.04000000	2155.63389807	2125.60223470	1856.58617353	1300.85882213	1517.57153275	1298.82032235	1298.81130930	3.55772538	-81.77858166	-152.80618902
0.05000000	2150.01987779	2121.63486458	1855.96678612	1300.65689271	1516.83889985	1298.45701281	1298.42069833	3.55396143	-81.73563450	-152.85926874
0.06000000	2143.77898139	2117.20127800	1855.33892989	1300.46388413	1516.02369603	1298.00800140	1297.92105008	3.55024888	-81.69465585	-152.96825921
0.07000000	2137.26736384	2112.49194182	1854.73006659	1300.29003100	1515.19174034	1297.51744581	1297.34945105	3.54731734	-81.65530194	-153.11878151
0.08000000	2130.84118007	2107.69732287	1854.16765795	1300.14556794	1514.40885182	1297.02950369	1296.74298770	3.54589646	-81.61722903	-153.29645677
0.09000000	2124.85658506	2103.00788802	1853.67916571	1300.04072953	1513.74084949	1296.58833272	1296.13874650	3.54671587	-81.58009337	-153.48690607
0.10000000	2119.66973373	2098.61410412	1853.29205162	1299.98575040	1513.25355240	1296.23809056	1295.57381393	3.55050520	-81.54355120	-153.67575053
0.11000000	2115.63678106	2094.70643800	1853.03377742	1299.99086514	1513.01277958	1296.02293488	1295.08527647	3.55799407	-81.50725877	-153.84861125
0.12000000	2113.07099655	2091.45925329	1852.92582573	1300.06444697	1513.07318721	1295.98132269	1294.70764194	3.56974477	-81.47091807	-153.99270345
0.13000000	2111.96869954	2088.92790053	1852.94548973	1300.20111226	1513.40693107	1296.10957947	1294.45636033	3.58508274	-81.43456915	-154.10702388
0.14000000	2112.18415134	2087.11438827	1853.05025676	1300.38931153	1513.94918998	1296.38514729	1294.33833986	3.60277903	-81.39840357	-154.19584980
0.15000000	2113.57094319	2086.02047347	1853.19752073	1300.61746621	1514.63496834	1296.78537911	1294.36044846	3.62160211	-81.36261362	-154.26348339
0.16000000	2115.98266631	2085.64791306	1853.34467557	1300.87399772	1515.39927057	1297.28762790	1294.52955404	3.64032043	-81.32739159	-154.31422682
0.17000000	2119.27291196	2085.99846399	1853.44911518	1301.14732751	1516.17710107	1297.86924664	1294.85252455	3.65770246	-81.29292974	-154.35238225
0.18000000	2123.29527135	2087.07388319	1853.46823349	1301.42587699	1516.90346425	1298.50758828	1295.33622790	3.67251664	-81.25942036	-154.38225186
0.19000000	2127.90333572	2088.87592762	1853.35942441	1301.69806760	1517.51336452	1299.18000581	1295.98753201	3.68353144	-81.22705574	-154.40813781
0.20000000	2132.95069631	2091.40635421	1853.08008186	1301.95232077	1517.94180628	1299.86385220	1296.81330482	3.68951531	-81.19602815	-154.43434229
0.21000000	2138.28662278	2094.64495024	1852.59487096	1302.17817672	1518.13356172	1300.53651773	1297.81244891	3.68946644	-81.16651642	-154.46469773
0.22000000	2143.72844577	2098.40913342	1851.92219561	1302.37344421	1518.10559295	1301.17566852	1298.92499810	3.68408088	-81.13859985	-154.49956498
0.23000000	2149.07918070	2102.44354695	1851.10454559	1302.53963798	1517.90721783	1301.75909431	1300.06460101	3.67481564	-81.11231316	-154.53774890
0.24000000	2154.14177551	2106.49249074	1850.18452429	1302.67829026	1517.58790683	1302.26458540	1301.14478184	3.66313135	-81.08769085	-154.57804702
0.25000000	2158.71917811	2110.30026470	1849.20473509	1302.79093326	1517.19713043	1302.66993213	1302.07906477	3.65048863	-81.06476743	-154.61925687
0.26000000	2162.61433641	2113.61116876	1848.20778139	1302.87909922	1516.78435911	1302.95292481	1302.78097398	3.63834808	-81.04357740	-154.66017598
